<?xml version="1.0" encoding="UTF-8" standalone="no"?>
<!-- Created with Inkscape (http://www.inkscape.org/) -->

<svg
   version="1.1"
   id="svg132"
   width="492"
   height="492"
   viewBox="0 0 492 492"
   xmlns="http://www.w3.org/2000/svg"
   xmlns:svg="http://www.w3.org/2000/svg">
  <defs
     id="defs136">
    <filter
       style="color-interpolation-filters:sRGB"
       id="filter592"
       x="0"
       y="0"
       width="1"
       height="1">
      <feColorMatrix
         type="hueRotate"
         values="180"
         result="color1"
         id="feColorMatrix588" />
      <feColorMatrix
         values="-1 0 0 0 1 0 -1 0 0 1 0 0 -1 0 1 -0.21 -0.72 -0.07 2 0 "
         result="fbSourceGraphic"
         id="feColorMatrix590" />
      <feColorMatrix
         result="fbSourceGraphicAlpha"
         in="fbSourceGraphic"
         values="0 0 0 -1 0 0 0 0 -1 0 0 0 0 -1 0 0 0 0 1 0"
         id="feColorMatrix594" />
      <feColorMatrix
         id="feColorMatrix596"
         type="hueRotate"
         values="180"
         result="color1"
         in="fbSourceGraphic" />
      <feColorMatrix
         id="feColorMatrix598"
         values="-1 0 0 0 1 0 -1 0 0 1 0 0 -1 0 1 -0.21 -0.72 -0.07 2 0 "
         result="fbSourceGraphic" />
      <feColorMatrix
         result="fbSourceGraphicAlpha"
         in="fbSourceGraphic"
         values="0 0 0 -1 0 0 0 0 -1 0 0 0 0 -1 0 0 0 0 1 0"
         id="feColorMatrix600" />
      <feColorMatrix
         id="feColorMatrix602"
         type="hueRotate"
         values="180"
         result="color1"
         in="fbSourceGraphic" />
      <feColorMatrix
         id="feColorMatrix604"
         values="-1 0 0 0 1 0 -1 0 0 1 0 0 -1 0 1 -0.21 -0.72 -0.07 2 0 "
         result="fbSourceGraphic" />
      <feColorMatrix
         result="fbSourceGraphicAlpha"
         in="fbSourceGraphic"
         values="0 0 0 -1 0 0 0 0 -1 0 0 0 0 -1 0 0 0 0 1 0"
         id="feColorMatrix606" />
      <feColorMatrix
         id="feColorMatrix608"
         type="hueRotate"
         values="180"
         result="color1"
         in="fbSourceGraphic" />
      <feColorMatrix
         id="feColorMatrix610"
         values="-1 0 0 0 1 0 -1 0 0 1 0 0 -1 0 1 -0.21 -0.72 -0.07 2 0 "
         result="fbSourceGraphic" />
      <feColorMatrix
         result="fbSourceGraphicAlpha"
         in="fbSourceGraphic"
         values="0 0 0 -1 0 0 0 0 -1 0 0 0 0 -1 0 0 0 0 1 0"
         id="feColorMatrix612" />
      <feColorMatrix
         id="feColorMatrix614"
         type="hueRotate"
         values="180"
         result="color1"
         in="fbSourceGraphic" />
      <feColorMatrix
         id="feColorMatrix616"
         values="-1 0 0 0 1 0 -1 0 0 1 0 0 -1 0 1 -0.21 -0.72 -0.07 2 0 "
         result="fbSourceGraphic" />
      <feColorMatrix
         result="fbSourceGraphicAlpha"
         in="fbSourceGraphic"
         values="0 0 0 -1 0 0 0 0 -1 0 0 0 0 -1 0 0 0 0 1 0"
         id="feColorMatrix3844" />
      <feColorMatrix
         id="feColorMatrix3846"
         type="hueRotate"
         values="180"
         result="color1"
         in="fbSourceGraphic" />
      <feColorMatrix
         id="feColorMatrix3848"
         values="-1 0 0 0 1 0 -1 0 0 1 0 0 -1 0 1 -0.21 -0.72 -0.07 2 0 "
         result="color2" />
    </filter>
  </defs>
  <g
     id="g138">
    <path
       style="fill:#ffffff;fill-opacity:1;stroke-width:1.33333;filter:url(#filter592)"
       d="M 90,444 H 48 v -42 -42 h 42 42 v 42 42 z m 0,-12 h 30 V 402 372 H 90 60 v 30 30 z m 0,-12 H 72 v -18 -18 h 18 18 v 18 18 z m 96,24 h -6 v -6 -6 h -12 -12 v -6 -6 h -6 -6 v -6 -6 h 6 6 v -6 -6 h -6 -6 v -12 -12 h 6 6 v -6 -6 h 12 12 v 6 6 h 6 6 v -6 -6 h 12 12 v 6 6 h -12 -12 v 6 6 h -18 -18 v 6 6 h 6 6 v 6 6 h 6 6 v -6 -6 h 12 12 v -6 -6 h 6 6 v 6 6 h -6 -6 v 12 12 h -6 -6 v 12 12 z m 0,-24 h 6 v -6 -6 h -6 -6 v 6 6 z m 36,24 h -6 v -6 -6 h 6 6 v -6 -6 h 6 6 v 6 6 h -6 -6 v 6 6 z m 42,0 h -12 v -6 -6 h 12 12 v 6 6 z m 42,0 h -6 v -6 -6 h 6 6 v 6 6 z m 36,0 h -6 v -6 -6 h -6 -6 v -6 -6 h -12 -12 v -12 -12 h -6 -6 v -6 -6 h -30 -30 v -6 -6 h 18 18 v -6 -6 h 6 6 v 6 6 h 6 6 v -6 -6 h 12 12 v 6 6 h -12 -12 v 6 6 h 6 6 v 6 6 h 6 6 v 6 6 h 6 6 v -12 -12 h 6 6 v -12 -12 h 6 6 v 12 12 h 18 18 v -18 -18 h -12 -12 v -6 -6 h 6 6 v -6 -6 h -6 -6 v -6 -6 h 6 6 v 6 6 h 12 12 v -18 -18 h -6 -6 v -6 -6 h 6 6 v 6 6 h 6 6 v 6 6 h 6 6 v -12 -12 h -6 -6 v -6 -6 h -12 -12 v -12 -12 h -6 -6 v 6 6 h -6 -6 v -6 -6 h 6 6 v -6 -6 h -6 -6 v -24 -24 h 6 6 v 6 6 h 12 12 v -6 -6 h -6 -6 v -6 -6 h 6 6 v -12 -12 h 6 6 v 12 12 h 6 6 v -6 -6 h 6 6 v -6 -6 h 6 6 v 54 54 h -6 -6 v 12 12 h 6 6 v 6 6 h -6 -6 v 6 6 h 6 6 v 18 18 h -6 -6 v 6 6 h 6 6 v 18 18 h -6 -6 v 6 6 h -6 -6 v 6 6 h -6 -6 v -12 -12 h -6 -6 v 18 18 h -6 -6 v 6 6 h 6 6 v 6 6 h -12 -12 v -18 -18 h 6 6 v -6 -6 h -18 -18 v 6 6 h 6 6 v 6 6 h -6 -6 v 12 12 z m 0,-24 h 6 v -6 -6 h -6 -6 v 6 6 z m 78,-36 h 12 v -6 -6 h -12 -12 v 6 6 z m 0,-24 h 12 v -6 -6 h -6 -6 v -6 -6 h 6 6 v -6 -6 h -18 -18 v 6 6 h 6 6 v 12 12 z m 6,-48 h 6 v -6 -6 h -6 -6 v 6 6 z m 0,-60 h 6 v -12 -12 h -12 -12 v 6 6 h 6 6 v 6 6 z m -36,-12 h 6 v -6 -6 h -6 -6 v 6 6 z m 0,-24 h 6 v -6 -6 h -6 -6 v 6 6 z m 24,0 h 6 v -6 -6 h 6 6 v -12 -12 h -12 -12 v 18 18 z m 12,228 h -18 v -12 -12 h 12 12 v -6 -6 h 6 6 v 6 6 h -6 -6 v 6 6 h 6 6 v 6 6 z M 276,420 h -12 v -12 -12 h 6 6 v 6 6 h 6 6 v 6 6 z m -36,-12 h -12 v -6 -6 h 12 12 v 6 6 z m 126,-36 h -6 v -6 -6 h 6 6 v 6 6 z M 150,356 h -2 v -2 -2 h 2 2 v 2 2 z m 12,0 h -2 v -2 -2 h 2 2 v 2 2 z m 24,0 h -2 v -2 -2 h 2 2 v 2 2 z m 24,0 h -2 v -2 -2 h 2 2 v 2 2 z m 36,0 h -2 v -2 -2 h 2 2 v 2 2 z m 12,0 h -2 v -2 -2 h 2 2 v 2 2 z m 12,0 h -2 v -2 -2 h 2 2 v 2 2 z m 48,0 h -2 v -2 -2 h 2 2 v 2 2 z m 12,0 h -2 v -2 -2 h 2 2 v 2 2 z M 54,348 h -6 v -6 -6 h 6 6 v -6 -6 h -6 -6 v -6 -6 h 6 6 v -12 -12 h -6 -6 v -6 -6 h 6 6 v -12 -12 h -6 -6 v -12 -12 h 6 6 v 12 12 h 12 12 v 6 6 h -6 -6 v 6 6 h -6 -6 v 6 6 h 6 6 v 12 12 h 6 6 v -6 -6 h 6 6 v -6 -6 h -6 -6 v -6 -6 h 18 18 v -6 -6 H 108 96 v -6 -6 h 12 12 v -6 -6 H 108 96 v -6 -6 h -6 -6 v -6 -6 H 72 60 v -6 -6 h 12 12 v -6 -6 h 6 6 v -6 -6 H 84 72 v 6 6 h -6 -6 v -6 -6 h 6 6 v -6 -6 h -6 -6 v -6 -6 h 6 6 v -6 -6 h 6 6 v 6 6 h -6 -6 v 6 6 h 12 12 v -12 -12 h 18 18 v 6 6 h -6 -6 v 6 6 h 6 6 v 6 6 h -6 -6 v 6 6 h 6 6 v 6 6 h -6 -6 v -6 -6 H 108 96 v 6 6 h 6 6 v 6 6 h 12 12 v 6 6 h -6 -6 v 6 6 h 6 6 v 6 6 h -6 -6 v 6 6 h 6 6 v 6 6 h -6 -6 v 6 6 h 6 6 v 6 6 h -6 -6 v -6 -6 h -6 -6 v 6 6 h -6 -6 v 6 6 h 6 6 v 12 12 H 84 60 v 6 6 z m 12,-24 h 6 v -6 -6 h -6 -6 v 6 6 z M 90,216 h 6 v -6 -6 h -6 -6 v 6 6 z m 18,-36 h 12 v -6 -6 H 108 96 v 6 6 z m 18,168 h -6 v -6 -6 h 6 6 v 6 6 z m 68,0 h -50 v -68 -68 h 18 18 v 50 50 h 32 32 v 18 18 z m -20,-4 h 2 v -2 -2 h -2 -2 v 2 2 z m 12,0 h 2 v -2 -2 h -2 -2 v 2 2 z m 12,0 h 2 v -2 -2 h -2 -2 v 2 2 z m 12,0 h 2 v -2 -2 h -2 -2 v 2 2 z m 24,0 h 2 v -2 -2 h -2 -2 v 2 2 z m -84,-12 h 2 v -2 -2 h -2 -2 v 2 2 z m 24,0 h 2 v -2 -2 h -2 -2 v 2 2 z m 48,0 h 2 v -2 -2 h -2 -2 v 2 2 z m 12,0 h 2 v -2 -2 h -2 -2 v 2 2 z m -84,-12 h 2 v -2 -2 h -2 -2 v 2 2 z m 24,0 h 2 v -2 -2 h -2 -2 v 2 2 z m 12,0 h 2 v -2 -2 h -2 -2 v 2 2 z m 24,0 h 2 v -2 -2 h -2 -2 v 2 2 z m -60,-12 h 2 v -2 -2 h -2 -2 v 2 2 z m 12,0 h 2 v -2 -2 h -2 -2 v 2 2 z m -12,-12 h 2 v -2 -2 h -2 -2 v 2 2 z m 12,0 h 2 v -2 -2 h -2 -2 v 2 2 z m -12,-12 h 2 v -2 -2 h -2 -2 v 2 2 z m 0,-12 h 2 v -2 -2 h -2 -2 v 2 2 z m 12,0 h 2 v -2 -2 h -2 -2 v 2 2 z m 12,0 h 2 v -2 -2 h -2 -2 v 2 2 z m -24,-12 h 2 v -2 -2 h -2 -2 v 2 2 z m 12,-12 h 2 v -2 -2 h -2 -2 v 2 2 z m 12,0 h 2 v -2 -2 h -2 -2 v 2 2 z m -24,-12 h 2 v -2 -2 h -2 -2 v 2 2 z m 12,0 h 2 v -2 -2 h -2 -2 v 2 2 z m -12,-12 h 2 v -2 -2 h -2 -2 v 2 2 z m 164,124 h -34 v -18 -18 h 34 34 v 18 18 z m -20,-4 h 2 v -2 -2 h -2 -2 v 2 2 z m 12,0 h 2 v -2 -2 h -2 -2 v 2 2 z m 24,0 h 2 v -2 -2 h -2 -2 v 2 2 z m 12,-12 h 2 v -2 -2 h -2 -2 v 2 2 z m -48,-12 h 2 v -2 -2 h -2 -2 v 2 2 z m 12,0 h 2 v -2 -2 h -2 -2 v 2 2 z m 24,0 h 2 v -2 -2 h -2 -2 v 2 2 z m 12,0 h 2 v -2 -2 h -2 -2 v 2 2 z m -72,24 h -2 v -2 -2 h 2 2 v 2 2 z M 138,332 h -2 v -2 -2 h 2 2 v 2 2 z m 132,0 h -2 v -2 -2 h 2 2 v 2 2 z m 84,0 h -2 v -2 -2 h 2 2 v 2 2 z m -228,-8 h -6 v -6 -6 h 6 6 v 6 6 z m 132,-4 h -2 v -2 -2 h 2 2 v 2 2 z m -48,-12 h -2 v -2 -2 h 2 2 v 2 2 z m 12,0 h -2 v -2 -2 h 2 2 v 2 2 z m 48,0 h -2 v -2 -2 h 2 2 v 2 2 z m 12,0 h -2 v -2 -2 h 2 2 v 2 2 z m 12,0 h -2 v -2 -2 h 2 2 v 2 2 z m 12,0 h -2 v -2 -2 h 2 2 v 2 2 z m 24,0 h -2 v -2 -2 h 2 2 v 2 2 z m 24,0 h -2 v -2 -2 h 2 2 v 2 2 z M 234,296 h -2 v -2 -2 h 2 2 v 2 2 z m 12,0 h -2 v -2 -2 h 2 2 v 2 2 z m 48,0 h -2 v -2 -2 h 2 2 v 2 2 z m 12,0 h -2 v -2 -2 h 2 2 v 2 2 z m 12,0 h -2 v -2 -2 h 2 2 v 2 2 z m 36,0 h -2 v -2 -2 h 2 2 v 2 2 z m 12,-8 h -6 v -6 -6 h 6 6 v 6 6 z m -228,-4 h -2 v -2 -2 h 2 2 v 2 2 z m 60,0 h -2 v -2 -2 h 2 2 v 2 2 z m 48,0 h -34 v -36 -36 h -2 -2 v -2 -2 h 2 2 v 2 2 h 34 34 v 36 36 z m -24,-12 h 2 v -2 -2 h -2 -2 v 2 2 z m 24,0 h 2 v -2 -2 h -2 -2 v 2 2 z m -24,-12 h 2 v -2 -2 h -2 -2 v 2 2 z m 48,0 h 2 v -2 -2 h -2 -2 v 2 2 z m -12,-12 h 2 v -2 -2 h -2 -2 v 2 2 z m 0,-12 h 2 v -2 -2 h -2 -2 v 2 2 z m 12,0 h 2 v -2 -2 h -2 -2 v 2 2 z m -36,-12 h 2 v -2 -2 h -2 -2 v 2 2 z m 12,0 h 2 v -2 -2 h -2 -2 v 2 2 z m 48,60 h -2 v -2 -2 h 2 2 v 2 2 z m 12,0 h -2 v -2 -2 h 2 2 v 2 2 z m 24,0 h -18 v -52 -52 h -32 -32 v -18 -18 h 50 50 v 70 70 z m -12,-12 h 2 v -2 -2 h -2 -2 v 2 2 z m 12,0 h 2 v -2 -2 h -2 -2 v 2 2 z m 12,0 h 2 v -2 -2 h -2 -2 v 2 2 z m -24,-12 h 2 v -2 -2 h -2 -2 v 2 2 z m 12,0 h 2 v -2 -2 h -2 -2 v 2 2 z m 12,0 h 2 v -2 -2 h -2 -2 v 2 2 z m 0,-12 h 2 v -2 -2 h -2 -2 v 2 2 z m -12,-12 h 2 v -2 -2 h -2 -2 v 2 2 z m -12,-12 h 2 v -2 -2 h -2 -2 v 2 2 z m 12,0 h 2 v -2 -2 h -2 -2 v 2 2 z m 0,-12 h 2 v -2 -2 h -2 -2 v 2 2 z m 0,-12 h 2 v -2 -2 h -2 -2 v 2 2 z m 12,-12 h 2 v -2 -2 h -2 -2 v 2 2 z m -84,-12 h 2 v -2 -2 h -2 -2 v 2 2 z m 36,0 h 2 v -2 -2 h -2 -2 v 2 2 z m 12,0 h 2 v -2 -2 h -2 -2 v 2 2 z m 24,0 h 2 v -2 -2 h -2 -2 v 2 2 z m 12,0 h 2 v -2 -2 h -2 -2 v 2 2 z m -84,-12 h 2 v -2 -2 h -2 -2 v 2 2 z m 12,0 h 2 v -2 -2 h -2 -2 v 2 2 z m 24,0 h 2 v -2 -2 h -2 -2 v 2 2 z m 24,0 h 2 v -2 -2 h -2 -2 v 2 2 z m 24,0 h 2 v -2 -2 h -2 -2 v 2 2 z m -72,-12 h 2 v -2 -2 h -2 -2 v 2 2 z m 12,0 h 2 v -2 -2 h -2 -2 v 2 2 z m 12,0 h 2 v -2 -2 h -2 -2 v 2 2 z m 12,0 h 2 v -2 -2 h -2 -2 v 2 2 z m 12,0 h 2 v -2 -2 h -2 -2 v 2 2 z m 24,0 h 2 v -2 -2 h -2 -2 v 2 2 z m 12,132 h -2 v -2 -2 h 2 2 v 2 2 z M 186,272 h -2 v -2 -2 h 2 2 v 2 2 z m 108,0 h -2 v -2 -2 h 2 2 v 2 2 z m 12,0 h -2 v -2 -2 h 2 2 v 2 2 z m 48,0 h -2 v -2 -2 h 2 2 v 2 2 z M 138,260 h -2 v -2 -2 h 2 2 v 2 2 z m 60,0 h -2 v -2 -2 h 2 2 v 2 2 z m -60,-12 h -2 v -2 -2 h 2 2 v 2 2 z m 48,0 h -2 v -2 -2 h 2 2 v 2 2 z m 12,0 h -2 v -2 -2 h 2 2 v 2 2 z m 108,0 h -2 v -2 -2 h 2 2 v 2 2 z M 186,236 h -2 v -2 -2 h 2 2 v 2 2 z m 12,0 h -2 v -2 -2 h 2 2 v 2 2 z m 108,0 h -2 v -2 -2 h 2 2 v 2 2 z M 186,224 h -2 v -2 -2 h 2 2 v 2 2 z m 108,0 h -2 v -2 -2 h 2 2 v 2 2 z m 12,0 h -2 v -2 -2 h 2 2 v 2 2 z M 150,200 h -2 v -2 -2 h 2 2 v 2 2 z m 36,0 h -2 v -2 -2 h 2 2 v 2 2 z m 36,0 h -2 v -2 -2 h 2 2 v 2 2 z m 12,0 h -2 v -2 -2 h 2 2 v 2 2 z m 12,0 h -2 v -2 -2 h 2 2 v 2 2 z m 12,0 h -2 v -2 -2 h 2 2 v 2 2 z m 12,0 h -2 v -2 -2 h 2 2 v 2 2 z m 12,0 h -2 v -2 -2 h 2 2 v 2 2 z m 72,0 h -2 v -2 -2 h 2 2 v 2 2 z M 138,188 h -2 v -2 -2 h 2 2 v 2 2 z m 12,0 h -2 v -2 -2 h 2 2 v 2 2 z m 36,0 h -2 v -2 -2 h 2 2 v 2 2 z m 24,0 h -2 v -2 -2 h 2 2 v 2 2 z m 24,0 h -2 v -2 -2 h 2 2 v 2 2 z m 12,0 h -2 v -2 -2 h 2 2 v 2 2 z m 12,0 h -2 v -2 -2 h 2 2 v 2 2 z m 36,0 h -2 v -2 -2 h 2 2 v 2 2 z m 12,0 h -2 v -2 -2 h 2 2 v 2 2 z m -128,-8 h -34 v -18 -18 h 34 34 v 18 18 z m -28,-4 h 2 v -2 -2 h -2 -2 v 2 2 z m 24,0 h 2 v -2 -2 h -2 -2 v 2 2 z m 24,0 h 2 v -2 -2 h -2 -2 v 2 2 z m -36,-12 h 2 v -2 -2 h -2 -2 v 2 2 z m 12,0 h 2 v -2 -2 h -2 -2 v 2 2 z m -12,-12 h 2 v -2 -2 h -2 -2 v 2 2 z m 12,0 h 2 v -2 -2 h -2 -2 v 2 2 z m 24,0 h 2 v -2 -2 h -2 -2 v 2 2 z m -60,24 h -2 v -2 -2 h 2 2 v 2 2 z m 216,0 h -2 v -2 -2 h 2 2 v 2 2 z m 12,-8 h -6 v -6 -6 h 6 6 v 6 6 z m -228,-4 h -2 v -2 -2 h 2 2 v 2 2 z m 84,0 h -2 v -2 -2 h 2 2 v 2 2 z m 0,-12 h -2 v -2 -2 h 2 2 v 2 2 z m 12,0 h -2 v -2 -2 h 2 2 v 2 2 z m 120,0 h -2 v -2 -2 h 2 2 v 2 2 z M 162,140 h -2 v -2 -2 h 2 2 v 2 2 z m 24,0 h -2 v -2 -2 h 2 2 v 2 2 z m 12,0 h -2 v -2 -2 h 2 2 v 2 2 z m 36,0 h -2 v -2 -2 h 2 2 v 2 2 z m 24,0 h -2 v -2 -2 h 2 2 v 2 2 z m 12,0 h -2 v -2 -2 h 2 2 v 2 2 z m 24,0 h -2 v -2 -2 h 2 2 v 2 2 z m 48,0 h -2 v -2 -2 h 2 2 v 2 2 z M 90,132 H 48 V 90 48 h 42 42 v 42 42 z m 0,-12 h 30 V 90 60 H 90 60 v 30 30 z m 0,-12 H 72 V 90 72 h 18 18 v 18 18 z m 60,24 h -6 v -6 -6 h 6 6 v 6 6 z m 24,0 h -6 v -6 -6 h 6 6 v 6 6 z m 24,0 h -6 v -12 -12 h 6 6 v 12 12 z m 24,0 h -6 V 114 96 h 12 12 v 12 12 h 6 6 V 108 96 h 6 6 v 6 6 h 12 12 v -6 -6 h -6 -6 v -6 -6 h 6 6 v -6 -6 h -6 -6 V 60 48 h 36 36 v 6 6 h -6 -6 v 6 6 h 6 6 v 6 6 h -12 -12 v 24 24 h -6 -6 v -12 -12 h -12 -12 v 6 6 h 6 6 v 6 6 h -6 -6 v -6 -6 h -6 -6 v 6 6 h -6 -6 v -6 -6 h -6 -6 v 6 6 h -6 -6 v -6 -6 h -6 -6 v 6 6 z m 78,-36 h 12 v -6 -6 h 6 6 V 72 60 h -6 -6 v 6 6 h -6 -6 v 6 6 h -6 -6 v 6 6 z m 42,36 h -6 v -6 -6 h 6 6 v 6 6 z m 60,0 H 360 V 90 48 h 42 42 v 42 42 z m 0,-12 h 30 V 90 60 h -30 -30 v 30 30 z m 0,-12 H 384 V 90 72 h 18 18 v 18 18 z M 150,96 h -6 v -6 -6 h 6 6 V 72 60 h -6 -6 v -6 -6 h 12 12 v 6 6 h 6 6 v 18 18 h -6 -6 v -6 -6 h -6 -6 v 6 6 z m 78,-12 h -12 v -6 -6 h 12 12 v -6 -6 h 6 6 v -6 -6 h 6 6 v 12 12 h -12 -12 v 6 6 z M 198,72 h -6 v -6 -6 h 6 6 v -6 -6 h 6 6 v 6 6 h -6 -6 v 6 6 z"
       id="path437"
       transform="matrix(1.2424242,0,0,1.2424242,-59.636364,-59.636364)" />
  </g>
</svg>
