<?xml version="1.0" encoding="UTF-8" standalone="no"?>
<svg
   data-name="Layer 1"
   width="850.53802"
   height="740.82953"
   viewBox="0 0 850.53801 740.82953"
   version="1.1"
   id="svg336"
   xmlns="http://www.w3.org/2000/svg"
   xmlns:svg="http://www.w3.org/2000/svg">
  <defs
     id="defs340" />
  <path
     d="m 766.87801,385.53954 a 354.2104,354.2104 0 0 1 -98.85,245.9 q -5.74494,6.015 -11.8,11.74 -9.225,8.775 -19.07,16.87 a 353.93418,353.93418 0 0 1 -217.58,80.69 q -3.97494,0.09 -7.98,0.09 c -63.43,0 -143.21,-33.87994 -215.61,-80.78 q -8.985,-5.82 -17.81,-11.91 -4.125,-2.82 -8.21,-5.72 a 730.42959,730.42959 0 0 1 -79.32,-64.8 514.11633,514.11633 0 0 1 -45.75,-48.92 c -55.63,-68.62006 -67.9,-130.45 11.41,-143.16 q 14.085,-2.25 27.34,-4.81 19.20008,-3.69 36.75,-7.97 23.64,-5.745 44.42005,-12.46 6.99,-2.25 13.66,-4.59 c 65.74,-23.09 109.74,-53.19995 139.69,-85.87 q 7.62,-8.295 14.05,-16.79 a 236.05512,236.05512 0 0 0 17.83,-27.12 254.89845,254.89845 0 0 0 18.41,-41.05 l 0.27,-0.78 c 23.83,-68.74 16.58,-132.5 42.87,-153.84 112.38,-91.23 252.29,38.69 317.96,191.9 q 4.965,11.58 9.34,23.3 1.965,5.23507 3.79,10.49 4.79992,13.69491 8.71,27.46 1.5,5.25 2.86005,10.49 c 0.97,3.77 1.9,7.53 2.76,11.29 6.3899,27.53 9.8599,54.68002 9.8599,80.35 z"
     fill="#f2f2f2"
     id="path182"
     style="fill:#242424;fill-opacity:0.501266" />
  <path
     d="m 419.57801,740.73956 q -3.97494,0.09 -7.98,0.09 c -63.43,0 -143.21,-33.87994 -215.61,-80.78 q -8.985,-5.82 -17.81,-11.91 l 5.16,-31.4 156.21,-20.74 78.4,59.95 z"
     fill="#2f2e41"
     id="path184" />
  <path
     d="m 427.09795,180.04962 h -22.26 a 2.601,2.601 0 0 0 -2.59985,2.59985 v 22.27 a 2.59264,2.59264 0 0 0 2.59985,2.59009 h 22.26 a 2.59918,2.59918 0 0 0 2.6001,-2.59009 v -22.27 a 2.60761,2.60761 0 0 0 -2.6001,-2.59985 z"
     fill="#ffffff"
     id="path186" />
  <path
     d="m 427.09795,217.99957 h -22.26 a 2.60105,2.60105 0 0 0 -2.59985,2.6 v 22.27 a 2.59253,2.59253 0 0 0 2.59985,2.59 h 22.26 a 2.59907,2.59907 0 0 0 2.6001,-2.59 v -22.27 a 2.60763,2.60763 0 0 0 -2.6001,-2.6 z"
     fill="#e6e6e6"
     id="path188" />
  <path
     d="m 427.09795,255.94952 h -22.26 a 2.60116,2.60116 0 0 0 -2.59985,2.6001 v 22.26 a 2.59464,2.59464 0 0 0 2.59985,2.59985 h 22.26 a 2.60116,2.60116 0 0 0 2.6001,-2.59985 v -22.26 a 2.60774,2.60774 0 0 0 -2.6001,-2.6001 z"
     fill="#e6e6e6"
     id="path190" />
  <path
     d="m 429.65801,296.03961 a 2.61714,2.61714 0 0 0 -2.56006,-2.14014 h -22.26 a 2.60124,2.60124 0 0 0 -2.59985,2.6001 v 22.26 a 2.59474,2.59474 0 0 0 2.59985,2.6 h 22.26 a 2.60126,2.60126 0 0 0 2.6001,-2.6 v -22.26 a 2.31271,2.31271 0 0 0 -0.04,-0.45996 z"
     fill="#e6e6e6"
     id="path192" />
  <path
     d="m 428.10801,332.04962 a 2.634,2.634 0 0 0 -1.01,-0.20008 h -22.26 a 2.59475,2.59475 0 0 0 -2.59985,2.6 v 22.26 a 2.58836,2.58836 0 0 0 2.59985,2.6001 h 22.26 a 2.60137,2.60137 0 0 0 2.6001,-2.6001 v -22.26 a 2.61575,2.61575 0 0 0 -1.5901,-2.39992 z"
     fill="#e6e6e6"
     id="path194" />
  <path
     d="m 473.85801,180.04962 h -22.26 a 2.601,2.601 0 0 0 -2.59985,2.59985 v 22.27 a 2.59264,2.59264 0 0 0 2.59985,2.59009 h 22.26 a 2.59918,2.59918 0 0 0 2.6001,-2.59009 v -22.27 a 2.60761,2.60761 0 0 0 -2.6001,-2.59985 z"
     fill="#e6e6e6"
     id="path196" />
  <path
     d="m 473.85801,217.99957 h -22.26 a 2.60105,2.60105 0 0 0 -2.59985,2.6 v 22.27 a 2.59253,2.59253 0 0 0 2.59985,2.59 h 22.26 a 2.59907,2.59907 0 0 0 2.6001,-2.59 v -22.27 a 2.60763,2.60763 0 0 0 -2.6001,-2.6 z"
     fill="#6c63ff"
     id="path198" />
  <path
     d="m 473.85801,255.94952 h -22.26 a 2.60116,2.60116 0 0 0 -2.59985,2.6001 v 22.26 a 2.59464,2.59464 0 0 0 2.59985,2.59985 h 22.26 a 2.60116,2.60116 0 0 0 2.6001,-2.59985 v -22.26 a 2.60774,2.60774 0 0 0 -2.6001,-2.6001 z"
     fill="#6c63ff"
     id="path200" />
  <path
     d="m 473.85801,293.89947 h -22.26 a 2.59261,2.59261 0 0 0 -2.46,1.78 2.47846,2.47846 0 0 0 -0.13989,0.82007 v 22.26 a 2.59474,2.59474 0 0 0 2.59985,2.6 h 22.26 a 2.60126,2.60126 0 0 0 2.6001,-2.6 v -22.26 a 2.60782,2.60782 0 0 0 -2.60006,-2.60007 z"
     fill="#6c63ff"
     id="path202" />
  <path
     d="m 473.85801,331.84954 h -22.26 a 2.59475,2.59475 0 0 0 -2.59985,2.6 v 22.26 a 2.59485,2.59485 0 0 0 2.59985,2.6001 h 22.26 a 2.60137,2.60137 0 0 0 2.6001,-2.6001 v -22.26 a 2.60127,2.60127 0 0 0 -2.6001,-2.6 z"
     fill="#e6e6e6"
     id="path204" />
  <path
     d="m 520.61801,180.04962 h -22.26 a 2.601,2.601 0 0 0 -2.59985,2.59985 v 22.27 a 2.59264,2.59264 0 0 0 2.59985,2.59009 h 22.26 a 2.59918,2.59918 0 0 0 2.6001,-2.59009 v -22.27 a 2.60761,2.60761 0 0 0 -2.6001,-2.59985 z"
     fill="#6c63ff"
     id="path206" />
  <path
     d="m 520.61801,217.99957 h -22.26 a 2.60105,2.60105 0 0 0 -2.59985,2.6 v 22.27 a 2.59253,2.59253 0 0 0 2.59985,2.59 h 22.26 a 2.59907,2.59907 0 0 0 2.6001,-2.59 v -22.27 a 2.60763,2.60763 0 0 0 -2.6001,-2.6 z"
     fill="#6c63ff"
     id="path208" />
  <path
     d="m 520.61801,255.94952 h -22.26 a 2.60116,2.60116 0 0 0 -2.59985,2.6001 v 22.26 a 2.59464,2.59464 0 0 0 2.59985,2.59985 h 22.26 a 2.60116,2.60116 0 0 0 2.6001,-2.59985 v -22.26 a 2.60774,2.60774 0 0 0 -2.6001,-2.6001 z"
     fill="#e6e6e6"
     id="path210" />
  <path
     d="m 520.61801,293.89947 h -22.26 a 2.60124,2.60124 0 0 0 -2.59985,2.6001 v 22.26 a 2.59474,2.59474 0 0 0 2.59985,2.6 h 22.26 a 2.60126,2.60126 0 0 0 2.6001,-2.6 v -22.26 a 2.60782,2.60782 0 0 0 -2.6001,-2.6001 z"
     fill="#6c63ff"
     id="path212" />
  <path
     d="m 520.61801,331.84954 h -22.26 a 2.59475,2.59475 0 0 0 -2.59985,2.6 v 22.26 a 2.59485,2.59485 0 0 0 2.59985,2.6001 h 22.26 a 2.60137,2.60137 0 0 0 2.6001,-2.6001 v -22.26 a 2.60127,2.60127 0 0 0 -2.6001,-2.6 z"
     fill="#6c63ff"
     id="path214" />
  <path
     d="m 567.37801,180.04962 h -22.26 a 2.60113,2.60113 0 0 0 -2.6,2.59985 v 22.27 a 2.59275,2.59275 0 0 0 2.6,2.59009 h 22.26 a 2.59918,2.59918 0 0 0 2.6001,-2.59009 v -22.27 a 2.60761,2.60761 0 0 0 -2.6001,-2.59985 z"
     fill="#6c63ff"
     id="path216" />
  <path
     d="m 567.37801,217.99957 h -22.26 a 2.60116,2.60116 0 0 0 -2.6,2.6 v 22.27 a 2.59264,2.59264 0 0 0 2.6,2.59 h 22.26 a 2.59907,2.59907 0 0 0 2.6001,-2.59 v -22.27 a 2.60763,2.60763 0 0 0 -2.6001,-2.6 z"
     fill="#ffffff"
     id="path218" />
  <path
     d="m 567.37801,255.94952 h -22.26 a 2.60126,2.60126 0 0 0 -2.6,2.6001 v 22.26 a 2.59474,2.59474 0 0 0 2.6,2.59985 h 22.26 a 2.60116,2.60116 0 0 0 2.6001,-2.59985 v -22.26 a 2.60774,2.60774 0 0 0 -2.6001,-2.6001 z"
     fill="#ffffff"
     id="path220" />
  <path
     d="m 567.37801,293.89947 h -22.26 a 2.60134,2.60134 0 0 0 -2.6,2.6001 v 22.26 a 2.59485,2.59485 0 0 0 2.6,2.6 h 22.26 a 2.60126,2.60126 0 0 0 2.6001,-2.6 v -22.26 a 2.60782,2.60782 0 0 0 -2.6001,-2.6001 z"
     fill="#e6e6e6"
     id="path222" />
  <path
     d="m 567.37801,331.84954 h -22.26 a 2.59485,2.59485 0 0 0 -2.6,2.6 v 22.26 a 2.595,2.595 0 0 0 2.6,2.6001 h 22.26 a 2.60137,2.60137 0 0 0 2.6001,-2.6001 v -22.26 a 2.60127,2.60127 0 0 0 -2.6001,-2.6 z"
     fill="#6c63ff"
     id="path224" />
  <path
     d="m 614.13801,180.04962 h -22.27 a 2.599,2.599 0 0 0 -2.59,2.59985 v 22.27 a 2.59059,2.59059 0 0 0 2.59,2.59009 h 22.27 a 2.59918,2.59918 0 0 0 2.6001,-2.59009 v -22.27 a 2.60761,2.60761 0 0 0 -2.6001,-2.59985 z"
     fill="#ffffff"
     id="path226" />
  <path
     d="m 614.13801,217.99957 h -22.27 a 2.599,2.599 0 0 0 -2.59,2.6 v 22.27 a 2.59048,2.59048 0 0 0 2.59,2.59 h 22.27 a 2.59907,2.59907 0 0 0 2.6001,-2.59 v -22.27 a 2.60763,2.60763 0 0 0 -2.6001,-2.6 z"
     fill="#ffffff"
     id="path228" />
  <path
     d="m 614.13801,255.94952 h -22.27 a 2.59915,2.59915 0 0 0 -2.59,2.6001 v 22.26 a 2.59261,2.59261 0 0 0 2.59,2.59985 h 22.27 a 2.60116,2.60116 0 0 0 2.6001,-2.59985 v -22.26 a 2.60774,2.60774 0 0 0 -2.6001,-2.6001 z"
     fill="#ffffff"
     id="path230" />
  <path
     d="m 614.13801,293.89947 h -22.27 a 2.59923,2.59923 0 0 0 -2.59,2.6001 v 22.26 a 2.59271,2.59271 0 0 0 2.59,2.6 h 22.27 a 2.60126,2.60126 0 0 0 2.6001,-2.6 v -22.26 a 2.60782,2.60782 0 0 0 -2.6001,-2.6001 z"
     fill="#6c63ff"
     id="path232" />
  <path
     d="m 614.13801,331.84954 h -22.27 a 2.59272,2.59272 0 0 0 -2.59,2.6 v 22.26 a 2.59282,2.59282 0 0 0 2.59,2.6001 h 22.27 a 2.60137,2.60137 0 0 0 2.6001,-2.6001 v -22.26 a 2.60127,2.60127 0 0 0 -2.6001,-2.6 z"
     fill="#e6e6e6"
     id="path234" />
  <path
     d="m 660.89801,180.04962 h -22.27 a 2.599,2.599 0 0 0 -2.59,2.59985 v 22.27 a 2.59059,2.59059 0 0 0 2.59,2.59009 h 22.27 a 2.59927,2.59927 0 0 0 2.6001,-2.59009 v -22.27 a 2.60769,2.60769 0 0 0 -2.6001,-2.59985 z"
     fill="#ffffff"
     id="path236" />
  <path
     d="m 660.89801,217.99957 h -22.27 a 2.599,2.599 0 0 0 -2.59,2.6 v 22.27 a 2.59048,2.59048 0 0 0 2.59,2.59 h 22.27 a 2.59916,2.59916 0 0 0 2.6001,-2.59 v -22.27 a 2.60772,2.60772 0 0 0 -2.6001,-2.6 z"
     fill="#ffffff"
     id="path238" />
  <path
     d="m 660.89801,255.94952 h -22.27 a 2.59915,2.59915 0 0 0 -2.59,2.6001 v 22.26 a 2.59261,2.59261 0 0 0 2.59,2.59985 h 22.27 a 2.60124,2.60124 0 0 0 2.6001,-2.59985 v -22.26 a 2.60782,2.60782 0 0 0 -2.6001,-2.6001 z"
     fill="#6c63ff"
     id="path240" />
  <path
     d="m 660.89801,293.89947 h -22.27 a 2.59923,2.59923 0 0 0 -2.59,2.6001 v 22.26 a 2.59271,2.59271 0 0 0 2.59,2.6 h 22.27 a 2.60134,2.60134 0 0 0 2.6001,-2.6 v -22.26 a 2.60791,2.60791 0 0 0 -2.6001,-2.6001 z"
     fill="#e6e6e6"
     id="path242" />
  <path
     d="m 660.89801,331.84954 h -22.27 a 2.59272,2.59272 0 0 0 -2.59,2.6 v 22.26 a 2.59282,2.59282 0 0 0 2.59,2.6001 h 22.27 a 2.60146,2.60146 0 0 0 2.6001,-2.6001 v -22.26 a 2.60135,2.60135 0 0 0 -2.6001,-2.6 z"
     fill="#ffffff"
     id="path244" />
  <path
     d="m 707.65801,180.04962 h -22.27 a 2.599,2.599 0 0 0 -2.59,2.59985 v 22.27 a 2.59059,2.59059 0 0 0 2.59,2.59009 h 22.27 a 2.59927,2.59927 0 0 0 2.6001,-2.59009 v -22.27 a 2.60769,2.60769 0 0 0 -2.6001,-2.59985 z"
     fill="#6c63ff"
     id="path246" />
  <path
     d="m 707.65801,217.99957 h -22.27 a 2.599,2.599 0 0 0 -2.59,2.6 v 22.27 a 2.59048,2.59048 0 0 0 2.59,2.59 h 22.27 a 2.59916,2.59916 0 0 0 2.6001,-2.59 v -22.27 a 2.60772,2.60772 0 0 0 -2.6001,-2.6 z"
     fill="#6c63ff"
     id="path248" />
  <path
     d="m 707.65801,255.94952 h -22.27 a 2.59915,2.59915 0 0 0 -2.59,2.6001 v 22.26 a 2.59261,2.59261 0 0 0 2.59,2.59985 h 22.27 a 2.60124,2.60124 0 0 0 2.6001,-2.59985 v -22.26 a 2.60782,2.60782 0 0 0 -2.6001,-2.6001 z"
     fill="#e6e6e6"
     id="path250" />
  <path
     d="m 707.65801,293.89947 h -22.27 a 2.59923,2.59923 0 0 0 -2.59,2.6001 v 22.26 a 2.59271,2.59271 0 0 0 2.59,2.6 h 22.27 a 2.60134,2.60134 0 0 0 2.6001,-2.6 v -22.26 a 2.60791,2.60791 0 0 0 -2.6001,-2.6001 z"
     fill="#ffffff"
     id="path252" />
  <path
     d="m 707.65801,331.84954 h -22.27 a 2.59272,2.59272 0 0 0 -2.59,2.6 v 22.26 a 2.59282,2.59282 0 0 0 2.59,2.6001 h 22.27 a 2.60146,2.60146 0 0 0 2.6001,-2.6001 v -22.26 a 2.60135,2.60135 0 0 0 -2.6001,-2.6 z"
     fill="#6c63ff"
     id="path254" />
  <path
     d="m 754.41801,180.04962 h -22.27 a 2.599,2.599 0 0 0 -2.59,2.59985 v 22.27 a 2.59059,2.59059 0 0 0 2.59,2.59009 h 22.27 a 2.59916,2.59916 0 0 0 2.6,-2.59009 v -22.27 a 2.60759,2.60759 0 0 0 -2.6,-2.59985 z"
     fill="#6c63ff"
     id="path256" />
  <path
     d="m 754.41801,217.99957 h -22.27 a 2.599,2.599 0 0 0 -2.59,2.6 v 22.27 a 2.59048,2.59048 0 0 0 2.59,2.59 h 22.27 a 2.59906,2.59906 0 0 0 2.6,-2.59 v -22.27 a 2.60761,2.60761 0 0 0 -2.6,-2.6 z"
     fill="#6c63ff"
     id="path258" />
  <path
     d="m 754.41801,255.94952 h -22.27 a 2.59915,2.59915 0 0 0 -2.59,2.6001 v 22.26 a 2.59261,2.59261 0 0 0 2.59,2.59985 h 22.27 a 2.60114,2.60114 0 0 0 2.6,-2.59985 v -22.26 a 2.60772,2.60772 0 0 0 -2.6,-2.6001 z"
     fill="#e6e6e6"
     id="path260" />
  <path
     d="m 754.41801,293.89947 h -22.27 a 2.59923,2.59923 0 0 0 -2.59,2.6001 v 22.26 a 2.59271,2.59271 0 0 0 2.59,2.6 h 22.27 a 2.60124,2.60124 0 0 0 2.6,-2.6 v -22.26 a 2.6078,2.6078 0 0 0 -2.6,-2.6001 z"
     fill="#6c63ff"
     id="path262" />
  <path
     d="m 754.41801,331.84954 h -22.27 a 2.59272,2.59272 0 0 0 -2.59,2.6 v 22.26 a 2.59282,2.59282 0 0 0 2.59,2.6001 h 22.27 a 2.60135,2.60135 0 0 0 2.6,-2.6001 v -22.26 a 2.60125,2.60125 0 0 0 -2.6,-2.6 z"
     fill="#6c63ff"
     id="path264" />
  <path
     d="m 801.17801,180.04962 h -22.27 a 2.599,2.599 0 0 0 -2.59,2.59985 v 22.27 a 2.59059,2.59059 0 0 0 2.59,2.59009 h 22.27 a 2.59916,2.59916 0 0 0 2.6,-2.59009 v -22.27 a 2.60759,2.60759 0 0 0 -2.6,-2.59985 z"
     fill="#e6e6e6"
     id="path266" />
  <path
     d="m 801.17801,217.99957 h -22.27 a 2.599,2.599 0 0 0 -2.59,2.6 v 22.27 a 2.59048,2.59048 0 0 0 2.59,2.59 h 22.27 a 2.59906,2.59906 0 0 0 2.6,-2.59 v -22.27 a 2.60761,2.60761 0 0 0 -2.6,-2.6 z"
     fill="#6c63ff"
     id="path268" />
  <path
     d="m 801.17801,255.94952 h -22.27 a 2.59915,2.59915 0 0 0 -2.59,2.6001 v 22.26 a 2.59261,2.59261 0 0 0 2.59,2.59985 h 22.27 a 2.60114,2.60114 0 0 0 2.6,-2.59985 v -22.26 a 2.60772,2.60772 0 0 0 -2.6,-2.6001 z"
     fill="#6c63ff"
     id="path270" />
  <path
     d="m 801.17801,293.89947 h -22.27 a 2.59923,2.59923 0 0 0 -2.59,2.6001 v 22.26 a 2.59271,2.59271 0 0 0 2.59,2.6 h 22.27 a 2.60124,2.60124 0 0 0 2.6,-2.6 v -22.26 a 2.6078,2.6078 0 0 0 -2.6,-2.6001 z"
     fill="#6c63ff"
     id="path272" />
  <path
     d="m 801.17801,331.84954 h -22.27 a 2.59272,2.59272 0 0 0 -2.59,2.6 v 22.26 a 2.59282,2.59282 0 0 0 2.59,2.6001 h 22.27 a 2.60135,2.60135 0 0 0 2.6,-2.6001 v -22.26 a 2.60125,2.60125 0 0 0 -2.6,-2.6 z"
     fill="#e6e6e6"
     id="path274" />
  <path
     d="m 847.93801,180.04962 h -22.27 a 2.59913,2.59913 0 0 0 -2.59009,2.59985 v 22.27 a 2.5907,2.5907 0 0 0 2.59009,2.59009 h 22.27 a 2.59916,2.59916 0 0 0 2.6,-2.59009 v -22.27 a 2.60759,2.60759 0 0 0 -2.6,-2.59985 z"
     fill="#e6e6e6"
     id="path276" />
  <path
     d="m 847.93801,217.99957 h -22.27 a 2.59916,2.59916 0 0 0 -2.59009,2.6 v 22.27 a 2.59059,2.59059 0 0 0 2.59009,2.59 h 22.27 a 2.59906,2.59906 0 0 0 2.6,-2.59 v -22.27 a 2.60761,2.60761 0 0 0 -2.6,-2.6 z"
     fill="#e6e6e6"
     id="path278" />
  <path
     d="m 847.93801,255.94952 h -22.27 a 2.59926,2.59926 0 0 0 -2.59009,2.6001 v 22.26 a 2.59272,2.59272 0 0 0 2.59009,2.59985 h 22.27 a 2.60114,2.60114 0 0 0 2.6,-2.59985 v -22.26 a 2.60772,2.60772 0 0 0 -2.6,-2.6001 z"
     fill="#6c63ff"
     id="path280" />
  <path
     d="m 847.93801,293.89947 h -22.27 a 2.59934,2.59934 0 0 0 -2.59009,2.6001 v 22.26 a 2.59282,2.59282 0 0 0 2.59009,2.6 h 22.27 a 2.60124,2.60124 0 0 0 2.6,-2.6 v -22.26 a 2.6078,2.6078 0 0 0 -2.6,-2.6001 z"
     fill="#e6e6e6"
     id="path282" />
  <path
     d="m 847.93801,331.84954 h -22.27 a 2.59283,2.59283 0 0 0 -2.59009,2.6 v 22.26 a 2.59293,2.59293 0 0 0 2.59009,2.6001 h 22.27 a 2.60135,2.60135 0 0 0 2.6,-2.6001 v -22.26 a 2.60125,2.60125 0 0 0 -2.6,-2.6 z"
     fill="#e6e6e6"
     id="path284" />
  <polygon
     points="335.475,660.051 336.005,659.981 336.095,660.051 "
     fill="#2f2e41"
     id="polygon286" />
  <circle
     id="b6132315-04e2-4cdb-a713-107c9cd58b0b"
     data-name="ab6171fa-7d69-4734-b81c-8dff60f9761b"
     cx="282.81439"
     cy="176.73277"
     r="68.321854"
     fill="#ffb6b6" />
  <path
     id="f4304bdd-ba2d-4fff-b404-410205410c5d-2605"
     data-name="bf427902-b9bf-4946-b5d7-5c1c7e04535e"
     d="m 342.64595,126.64036 c 0,0 17.8694,-34.16091 -21.44383,-37.26649 0,0 -33.51489,-30.40228 -67.6758,-5.558 0,0 -18.63322,0 -28.82254,21.08567 0,0 -14.655,-5.558 -17.87551,9.31661 0,0 -10.72349,31.05546 0,59.00533 10.72348,27.94992 14.28537,31.05537 14.28537,31.05537 0,0 -17.6209,-58.59838 25.26991,-61.704 42.89081,-3.10562 90.8867,-29.90942 94.46114,4.25144 3.57444,34.16086 8.95329,42.57784 8.95329,42.57784 0,0 33.94958,-48.78877 -7.15203,-62.76377 z"
     fill="#2f2e41" />
  <path
     d="m 459.54801,345.10955 -0.2201,1.16 -2.47,13.04 -17.06994,90.2 -1.01,5.31006 -2.12,11.23 -2.8999,15.31994 -6.43018,33.95008 -1.83984,9.73 -0.69006,3.6499 -0.24,1.28 -1.91,10.07007 -0.58,3.03991 -4.66,34.53 -4.07007,30.09 13.62012,13.62 -8.12012,8.12 -5.32983,30.53 0.01,0.0701 h -217.53 q -13.20008,-8.55012 -26.02,-17.63013 l 1.79,-13.3999 c 0,0 6.15991,-23.93006 3.56982,-26.79 -2.57983,-2.86 -8.24,-7.97 -8.24,-7.97 l 7.13013,-16.64 0.99,-2.30993 -1.66,-34.43006 -0.0399,-0.83 -0.55,-11.3501 -0.0701,-1.46 -0.11,-2.18994 -2.11,-43.68006 -0.04,-0.72009 -0.63989,-13.24 -0.6001,-12.58984 -0.26,-5.31006 -2.56994,-53.13 -1.74,-36.07995 -1.52,-31.41 6.11,-2.06994 65.3501,-22.21009 27.06982,-35.19006 56.34009,0.42 27.58008,0.21009 46.0199,42.67993 10.47009,5 0.08,0.04 7.50988,3.59 19.04,9.09 20.13013,9.62012 10.32983,4.92993 z"
     fill="#cacaca"
     id="path290" />
  <path
     d="m 269.10886,557.55088 a 30.28588,30.28588 0 0 1 -40.66389,-22.43 l -106.55882,-15.11792 37.0428,-41.902 95.511,20.7803 a 30.45,30.45 0 0 1 14.66891,58.66964 z"
     fill="#ffb6b6"
     id="path292" />
  <path
     d="m 221.59795,481.36956 a 13.52249,13.52249 0 0 0 -7.88989,-4.87 l -43.72,-9.09009 -4.49,-0.92993 a 18.93267,18.93267 0 0 1 -12.53009,-9.07007 19.16055,19.16055 0 0 1 -2.45,-7.8999 18.89456,18.89456 0 0 1 0.89,-7.48 l 15.15,-45.65 9.82995,-29.62 a 41.79215,41.79215 0 0 0 2.09009,-11.05 43.34878,43.34878 0 0 0 -9.07007,-28.88989 42.69326,42.69326 0 0 0 -49.01,-13.64014 c -0.25,0.0901 -0.51,0.19006 -0.76,0.29 a 42.58322,42.58322 0 0 0 -25.31,28.41 l -10.68,38.85 -22.03,80.09009 a 57.7664,57.7664 0 0 0 48.96,72.67993 l 62.97,7.38 29.14,3.42 a 13.49651,13.49651 0 0 0 14.84,-10.73 4.89544,4.89544 0 0 0 0.11,-0.55005 l 0.7,-4.32007 5.93006,-36.37988 0.0599,-0.37012 a 13.47483,13.47483 0 0 0 -2.72998,-10.57988 z"
     fill="#cacaca"
     id="path294" />
  <path
     d="m 336.98257,558.71712 a 30.28592,30.28592 0 0 0 37.09449,-27.9402 l 103.362,-29.99367 -42.58155,-36.25956 -91.62614,34.04148 a 30.45,30.45 0 0 0 -6.2488,60.152 z"
     fill="#ffb6b6"
     id="path296" />
  <path
     d="M 528.75811,433.68951 479.59795,320.54962 a 42.819,42.819 0 0 0 -20.27,-21.3501 43.35617,43.35617 0 0 0 -8.7799,-3.2 c -0.4701,-0.12 -0.94007,-0.23 -1.41,-0.32007 a 42.1319,42.1319 0 0 0 -19.48,0.36011 42.81378,42.81378 0 0 0 -27.34,21.73 1.00376,1.00376 0 0 0 -0.08,0.13989 43.10025,43.10025 0 0 0 -0.37012,38.8501 l 0.61011,1.22 34.74,69.77 a 18.90046,18.90046 0 0 1 -10.5,26.18994 l -2.44006,0.88013 -43.88,15.84985 a 13.4969,13.4969 0 0 0 -8.33,16.79 l 0.11,0.3501 12.3,39.35986 c 0.0599,0.18005 0.11987,0.36011 0.18994,0.54 a 7.0543,7.0543 0 0 0 0.4,0.99 13.48177,13.48177 0 0 0 15.80993,7.53 l 23.68006,-6.25 4.82995,-1.28 61.15,-16.1499 a 57.76037,57.76037 0 0 0 38.22009,-78.86011 z"
     fill="#cacaca"
     id="path298" />
  <path
     d="m 44.89801,528.69958 a 514.11633,514.11633 0 0 0 45.75,48.92 h 451.97 a 16.44588,16.44588 0 0 1 16.42,16.43 l 0.65,114.53 a 355.4301,355.4301 0 0 0 77.47,-48.53 q 9.84,-8.085 19.07,-16.87 6.045,-5.73 11.8,-11.74 a 355.62853,355.62853 0 0 0 68.82,-102.74 z"
     fill="#3f3d56"
     id="path300" />
  <path
     d="m 668.02801,631.43951 q -5.74494,6.015 -11.79993,11.74 h -96.21007 v -11.74 z"
     fill="#ffffff"
     id="path302" />
  <path
     d="m 458.64801,255.94952 a 5.53766,5.53766 0 0 0 -4.87,-2.8999 h -327.84 a 5.55451,5.55451 0 0 0 -5.54,5.54992 v 196.2201 h 338.92992 v -196.2201 a 5.38548,5.38548 0 0 0 -0.67992,-2.65002 z"
     fill="#3f3d56"
     id="path304" />
  <path
     d="m 120.10114,449.50715 v 24.21381 a 7.64384,7.64384 0 0 0 7.64382,7.64392 h 125.09671 v 47.78659 h -1.66185 a 0.9929,0.9929 0 0 0 -0.993,0.99292 v 3.32374 a 0.9929,0.9929 0 0 0 0.993,0.993 h 77.6584 a 0.99291,0.99291 0 0 0 0.993,-0.993 v -3.32374 a 0.9929,0.9929 0 0 0 -0.993,-0.99292 h -1.66185 v -47.78659 h 125.09671 a 7.64384,7.64384 0 0 0 7.64382,-7.64392 v -24.21381 z"
     fill="#3f3d56"
     id="path306" />
  <circle
     cx="285.90292"
     cy="348.70374"
     r="31.306419"
     fill="#6c63ff"
     id="circle308" />
  <path
     d="m 365.66801,172.99957 h -5 c 0,-37.8 -37.41,-62.57 -75.15,-62.59 a 82.38227,82.38227 0 0 0 -16.35,1.59 c -6.06,1.21 -12.35,2.66 -18.53,4.55 -24.37,7.47 -46.97,21.91 -46.97,56.45 a 78.591,78.591 0 0 0 2.54,19.88 l -4.84,1.26 a 83.87572,83.87572 0 0 1 -2.7,-21.14 c 0,-30.18 12.39,-50.91 33.79,-63.27 11.25,-6.5 24.98,-10.69 40.71,-12.73 a 97.13079,97.13079 0 0 1 19.75,-0.6 c 43.4,3.11996 72.75,36.39998 72.75,76.6 z"
     fill="#6c63ff"
     id="path310" />
  <path
     d="m 373.99801,175.76953 -1.97,-14.56 a 15.71013,15.71013 0 0 0 -5,-9.56 15.81566,15.81566 0 0 0 -13.25,-4 l -3.13,0.43 a 6.52426,6.52426 0 0 0 -4.35,2.53 6.548,6.548 0 0 0 -1.29,4.87 l 4.55,33.54 a 6.57712,6.57712 0 0 0 5.3,5.57 6.15442,6.15442 0 0 0 1.22,0.12 6.49883,6.49883 0 0 0 0.88,-0.06 l 3.5,-0.47 a 15.79135,15.79135 0 0 0 10.74,-6.43 c 0.27,-0.38 0.53,-0.77 0.77,-1.17005 a 16.7484,16.7484 0 0 0 2.03,-10.80995 z"
     fill="#6c63ff"
     id="path312" />
  <path
     d="m 348.62801,148.68957 a 6.4317,6.4317 0 0 0 -2.33,1.92 6.548,6.548 0 0 0 -1.29,4.87 l 4.55,33.54 a 6.57712,6.57712 0 0 0 5.3,5.57 z"
     fill="#ffffff"
     id="path314" />
  <path
     d="m 373.99801,175.76953 -1.97,-14.56 a 15.71013,15.71013 0 0 0 -5,-9.56 l 4.53,33.37 a 6.17592,6.17592 0 0 0 0.41,1.56 16.7484,16.7484 0 0 0 2.03,-10.81 z"
     fill="#3f3d56"
     id="path316" />
  <ellipse
     cx="330.13663"
     cy="225.75209"
     rx="2.5"
     ry="7"
     transform="rotate(-7.72549)"
     fill="#3f3d56"
     id="ellipse318" />
  <ellipse
     cx="329.58356"
     cy="207.51221"
     rx="2.5"
     ry="7"
     transform="rotate(-7.72549)"
     fill="#3f3d56"
     id="ellipse320" />
  <ellipse
     cx="347.47009"
     cy="217.00279"
     rx="2.5"
     ry="7"
     transform="rotate(-7.72549)"
     fill="#3f3d56"
     id="ellipse322" />
  <path
     d="m 285.51801,110.40954 a 82.38227,82.38227 0 0 0 -16.35,1.59 c -6.06,1.21 -12.35,2.66 -18.53,4.55 -9.65,-0.47 -16.75,-2.97 -18.18,-6.82 11.25,-6.5 24.98,-10.69 40.71,-12.73 a 97.13079,97.13079 0 0 1 19.75,-0.6 5.727,5.727 0 0 1 2.72,3.82 c 0.47,3.48004 -3.5,7.17999 -10.12,10.19 z"
     fill="#3f3d56"
     id="path324" />
  <path
     d="m 221.67801,207.69958 -7.7,-32.01 a 6.02367,6.02367 0 0 0 -4.88,-4.55 6.73326,6.73326 0 0 0 -1,-0.08 6.02576,6.02576 0 0 0 -1.4,0.17 l -2.98,0.72 a 14.904,14.904 0 0 0 -10.99,17.96 l 3.45,14.36 a 15.84509,15.84509 0 0 0 5.34,8.62005 14.045,14.045 0 0 0 1.36,0.97 14.80921,14.80921 0 0 0 11.37,1.84 l 2.97,-0.72 a 5.84014,5.84014 0 0 0 2.17,-1.01 5.99327,5.99327 0 0 0 2.29,-6.27005 z"
     fill="#6c63ff"
     id="path326" />
  <ellipse
     cx="152.63057"
     cy="237.23219"
     rx="2.5"
     ry="7"
     transform="rotate(-13.53051)"
     fill="#3f3d56"
     id="ellipse328" />
  <ellipse
     cx="142.20622"
     cy="237.8093"
     rx="2.5"
     ry="7"
     transform="rotate(-13.53051)"
     fill="#3f3d56"
     id="ellipse330" />
  <path
     d="m 222.16801,207.57952 -7.7,-32.01 a 6.53174,6.53174 0 0 0 -5.29,-4.92 l 10.51,43.72 a 6.5111,6.5111 0 0 0 2.48,-6.79 z"
     fill="#ffffff"
     id="path332" />
  <path
     d="m 194.46801,183.56957 a 6.476,6.476 0 0 0 -1.17,-2.45 14.72545,14.72545 0 0 0 -0.57,8.79 l 3.45,14.36 a 15.84509,15.84509 0 0 0 5.34,8.62005 z"
     fill="#3f3d56"
     id="path334" />
</svg>
